<?xml version="1.0" standalone="no"?>
<!DOCTYPE svg PUBLIC "-//W3C//DTD SVG 20010904//EN"
 "http://www.w3.org/TR/2001/REC-SVG-20010904/DTD/svg10.dtd">
<svg version="1.0" xmlns="http://www.w3.org/2000/svg"
 width="512.000000pt" height="512.000000pt" viewBox="0 0 512.000000 512.000000"
 preserveAspectRatio="xMidYMid meet">
<metadata>
Created by potrace 1.15, written by Peter Selinger 2001-2017
</metadata>
<g class='test-svg' transform="translate(0.000000,512.000000) scale(0.100000,-0.100000)"
fill="#ff0000" stroke="none">
<path class='my-svg' d="M203 4958 c-174 -172 -196 -198 -191 -231 3 -19 32 5 192 163 103
102 192 193 197 203 8 14 5 17 -17 17 -21 0 -60 -33 -181 -152z"/>
<path class='my-svg' d="M303 4858 c-140 -139 -264 -265 -275 -281 -10 -15 -18 -37 -16 -50 3
-18 49 23 292 263 158 157 292 293 297 303 8 14 5 17 -17 17 -22 0 -75 -47
-281 -252z"/>
<path class='my-svg' d="M402 4758 c-194 -194 -362 -365 -373 -381 -11 -15 -19 -37 -17 -50 4
-18 57 31 339 310 l334 333 -3 -68 -4 -67 -334 -336 c-273 -274 -334 -340
-334 -362 0 -15 3 -27 7 -27 4 0 155 147 335 327 l328 328 0 -65 0 -64 -335
-336 c-274 -275 -335 -341 -335 -363 0 -15 3 -27 7 -27 4 0 155 147 335 327
l328 328 0 -65 0 -64 -335 -336 c-274 -275 -335 -341 -335 -363 0 -15 3 -27 7
-27 4 0 155 147 335 327 l328 328 0 -65 0 -64 -335 -336 c-274 -275 -335 -341
-335 -363 0 -15 3 -27 7 -27 4 0 155 147 335 327 l328 328 0 -65 0 -64 -335
-336 c-274 -275 -335 -341 -335 -363 0 -15 3 -27 7 -27 4 0 155 147 335 327
l328 328 0 -65 0 -64 -335 -336 c-274 -275 -335 -341 -335 -363 0 -15 3 -27 7
-27 4 0 155 147 335 327 l328 328 0 -66 0 -66 -257 -204 c-142 -112 -275 -219
-296 -238 -48 -43 -77 -99 -77 -148 0 -22 -9 -48 -20 -63 -11 -14 -20 -35 -20
-48 0 -20 3 -21 20 -12 19 10 20 8 20 -52 0 -47 -5 -69 -20 -88 -11 -14 -20
-35 -20 -48 0 -20 3 -21 20 -12 19 10 20 8 20 -52 0 -47 -5 -69 -20 -88 -11
-14 -20 -35 -20 -48 0 -20 3 -21 20 -12 19 10 20 8 20 -52 0 -47 -5 -69 -20
-88 -11 -14 -20 -35 -20 -48 0 -20 3 -21 20 -12 19 10 20 8 20 -52 0 -47 -5
-69 -20 -88 -11 -14 -20 -35 -20 -48 0 -20 3 -21 20 -12 19 10 20 8 20 -52 0
-47 -5 -69 -20 -88 -11 -14 -20 -35 -20 -48 0 -20 3 -21 20 -12 19 10 20 8 20
-52 0 -47 -5 -69 -20 -88 -11 -14 -20 -35 -20 -48 0 -20 3 -21 20 -12 19 10
20 8 20 -52 0 -47 -5 -69 -20 -88 -11 -14 -20 -35 -20 -48 0 -20 3 -21 20 -12
19 10 20 8 20 -52 0 -47 -5 -69 -20 -88 -11 -14 -20 -35 -20 -48 0 -20 3 -21
20 -12 19 10 20 8 20 -52 0 -47 -5 -69 -20 -88 -11 -14 -20 -35 -20 -48 0 -20
3 -21 20 -12 19 10 20 8 20 -52 0 -47 -5 -69 -20 -88 -11 -14 -20 -35 -20 -48
0 -20 3 -21 20 -12 19 10 20 8 20 -52 0 -47 -5 -69 -20 -88 -11 -14 -20 -35
-20 -48 0 -20 3 -21 20 -12 19 10 20 8 20 -52 0 -47 -5 -69 -20 -88 -11 -14
-20 -35 -20 -48 0 -20 3 -21 20 -12 19 10 20 8 20 -52 0 -47 -5 -69 -20 -88
-11 -14 -20 -35 -20 -48 0 -20 3 -21 20 -12 19 10 20 8 20 -51 0 -46 -5 -68
-21 -90 -11 -16 -19 -38 -17 -50 l3 -21 27 21 c26 21 27 21 33 2 3 -10 14 -26
25 -36 19 -18 19 -18 -12 -54 -32 -36 -32 -36 -9 -39 14 -2 37 8 60 25 31 24
43 28 93 25 l58 -3 -16 -24 c-16 -24 -15 -25 6 -25 13 0 38 11 56 25 27 20 44
25 94 25 l60 0 -16 -25 c-16 -24 -16 -25 6 -25 13 0 38 11 56 25 27 20 44 25
94 25 l60 0 -16 -25 c-16 -24 -16 -25 6 -25 13 0 38 11 56 25 27 20 44 25 94
25 l60 0 -16 -25 c-16 -24 -16 -25 6 -25 13 0 38 11 56 25 27 20 44 25 94 25
l60 0 -16 -25 c-16 -24 -16 -25 6 -25 13 0 38 11 56 25 27 20 44 25 94 25 l60
0 -16 -25 c-16 -24 -16 -25 6 -25 13 0 38 11 56 25 27 20 44 25 94 25 l60 0
-16 -25 c-16 -24 -16 -25 6 -25 13 0 38 11 56 25 27 20 44 25 94 25 l60 0 -16
-25 c-16 -24 -16 -25 6 -25 13 0 38 11 56 25 27 20 44 25 94 25 l60 0 -16 -25
c-16 -24 -16 -25 6 -25 13 0 38 11 56 25 27 20 44 25 94 25 l60 0 -16 -25
c-16 -24 -16 -25 6 -25 13 0 38 11 56 25 27 20 44 25 94 25 l60 0 -16 -25
c-16 -24 -16 -25 6 -25 13 0 38 11 56 25 27 20 44 25 94 25 l60 0 -16 -25
c-16 -24 -16 -25 6 -25 13 0 38 11 56 25 27 20 44 25 94 25 l60 0 -16 -25
c-16 -24 -16 -25 6 -25 13 0 38 11 56 25 27 20 44 25 94 25 l60 0 -16 -25
c-16 -24 -16 -25 6 -25 13 0 38 11 56 25 27 20 44 25 94 25 l60 0 -16 -25
c-16 -24 -16 -25 6 -25 13 0 38 11 56 25 27 20 44 25 94 25 l60 0 -16 -25
c-16 -24 -16 -25 6 -25 13 0 38 11 56 25 27 20 44 25 94 25 l60 0 -16 -25
c-16 -24 -16 -25 6 -25 13 0 38 11 56 25 27 20 44 25 94 25 l60 0 -16 -25
c-16 -24 -16 -25 6 -25 13 0 38 11 56 25 27 20 44 25 94 25 l60 0 -16 -25
c-16 -24 -16 -25 6 -25 13 0 38 11 56 25 27 20 44 25 94 25 l60 0 -16 -25
c-16 -24 -16 -25 6 -25 13 0 38 11 56 25 27 20 44 25 94 25 l60 0 -16 -25
c-16 -24 -16 -25 6 -25 13 0 38 11 56 25 27 20 44 25 94 25 l60 0 -16 -25
c-16 -24 -16 -25 6 -25 13 0 38 11 56 25 27 20 44 25 94 25 l60 0 -16 -25
c-16 -24 -16 -25 6 -25 13 0 38 11 56 25 27 20 44 25 94 25 l60 0 -16 -25
c-16 -24 -16 -25 7 -25 51 0 239 188 239 238 0 24 -1 24 -25 8 l-25 -16 0 60
c0 50 5 67 25 94 14 18 25 43 25 56 0 22 -1 22 -25 6 l-25 -16 0 60 c0 50 5
67 25 94 14 18 25 43 25 56 0 22 -1 22 -25 6 l-25 -16 0 60 c0 50 5 67 25 94
14 18 25 43 25 56 0 22 -1 22 -25 6 l-25 -16 0 60 c0 50 5 67 25 94 14 18 25
43 25 56 0 22 -1 22 -25 6 l-25 -16 0 60 c0 50 5 67 25 94 14 18 25 43 25 56
0 22 -1 22 -25 6 l-25 -16 0 60 c0 50 5 67 25 94 14 18 25 43 25 56 0 22 -1
22 -25 6 l-25 -16 0 60 c0 50 5 67 25 94 14 18 25 43 25 56 0 22 -1 22 -25 6
l-25 -16 0 60 c0 50 5 67 25 94 14 18 25 43 25 56 0 22 -1 22 -25 6 l-25 -16
0 60 c0 50 5 67 25 94 14 18 25 43 25 56 0 22 -1 22 -25 6 l-25 -16 0 60 c0
50 5 67 25 94 14 18 25 43 25 56 0 22 -1 22 -25 6 l-25 -16 0 60 c0 50 5 67
25 94 14 18 25 43 25 56 0 22 -1 22 -25 6 l-25 -16 0 60 c0 50 5 67 25 94 14
18 25 43 25 56 0 22 -1 22 -25 6 l-25 -16 0 60 c0 50 5 67 25 94 14 18 25 43
25 56 0 22 -1 22 -25 6 l-25 -16 0 60 c0 50 5 67 25 94 14 18 25 43 25 56 0
21 -1 22 -24 7 l-24 -16 -4 57 c-5 52 -2 60 24 93 19 23 28 46 26 60 -3 23 -5
22 -48 -18 l-44 -41 -37 26 -37 27 84 87 c60 63 84 94 84 113 0 14 -3 25 -6
25 -4 0 -51 -43 -105 -96 l-97 -96 -37 27 -36 28 141 142 c108 110 140 149
140 169 0 14 -3 26 -7 26 -3 0 -75 -68 -159 -151 -162 -162 -154 -157 -208
-114 -19 14 -11 24 177 214 156 157 197 204 197 225 0 14 -3 26 -7 26 -4 0
-102 -94 -217 -209 l-211 -210 -35 29 -35 29 252 254 c204 204 253 259 253
280 0 15 -3 27 -7 27 -4 0 -127 -119 -273 -265 l-265 -265 -38 27 -38 27 311
311 c252 253 310 316 310 338 0 15 -3 27 -7 27 -4 0 -152 -145 -329 -321 -188
-187 -327 -319 -333 -315 -6 4 -11 28 -11 54 l0 46 340 341 c278 279 340 346
340 368 0 15 -3 27 -7 27 -4 0 -157 -150 -340 -332 l-333 -333 0 65 0 64 340
341 c278 279 340 346 340 368 0 15 -3 27 -7 27 -4 0 -157 -150 -340 -332
l-333 -333 0 65 0 64 340 341 c278 279 340 346 340 368 0 15 -3 27 -7 27 -4 0
-157 -150 -340 -332 l-333 -333 0 65 0 64 340 341 c278 279 340 346 340 368 0
15 -3 27 -7 27 -4 0 -157 -150 -340 -332 l-333 -333 0 65 0 65 276 275 c151
151 280 283 285 293 8 14 5 17 -17 17 -22 0 -76 -48 -286 -257 l-258 -257 0
65 0 64 176 175 c96 96 180 183 185 193 8 14 5 17 -17 17 -21 0 -60 -34 -185
-157 l-159 -157 0 65 0 65 76 74 c93 93 104 110 70 110 -18 0 -47 -20 -93 -63
l-68 -64 -28 34 -29 33 22 27 22 28 -21 3 c-12 2 -34 -6 -50 -17 -22 -16 -44
-21 -90 -21 -59 0 -61 1 -51 20 9 17 8 20 -12 20 -13 0 -34 -9 -48 -20 -19
-15 -41 -20 -88 -20 -60 0 -62 1 -52 20 9 17 8 20 -12 20 -13 0 -34 -9 -48
-20 -19 -15 -41 -20 -88 -20 -60 0 -62 1 -52 20 9 17 8 20 -12 20 -13 0 -34
-9 -48 -20 -19 -15 -41 -20 -88 -20 -60 0 -62 1 -52 20 9 17 8 20 -12 20 -13
0 -34 -9 -48 -20 -19 -15 -41 -20 -88 -20 -60 0 -62 1 -52 20 9 17 8 20 -12
20 -13 0 -34 -9 -48 -20 -19 -15 -41 -20 -88 -20 -60 0 -62 1 -52 20 9 17 8
20 -12 20 -13 0 -34 -9 -48 -20 -19 -15 -41 -20 -88 -20 -60 0 -62 1 -52 20 9
17 8 20 -12 20 -13 0 -34 -9 -48 -20 -19 -15 -41 -20 -88 -20 -60 0 -62 1 -52
20 9 17 8 20 -12 20 -13 0 -34 -9 -48 -20 -19 -15 -41 -20 -88 -20 -60 0 -62
1 -52 20 9 17 8 20 -12 20 -13 0 -34 -9 -48 -20 -19 -15 -41 -20 -88 -20 -60
0 -62 1 -52 20 9 17 8 20 -12 20 -13 0 -34 -9 -48 -20 -19 -15 -41 -20 -88
-20 -60 0 -62 1 -52 20 9 17 8 20 -12 20 -13 0 -34 -9 -48 -20 -19 -15 -41
-20 -88 -20 -60 0 -62 1 -52 20 9 17 8 20 -12 20 -13 0 -34 -9 -48 -20 -19
-15 -41 -20 -88 -20 -60 0 -62 1 -52 20 9 17 8 20 -12 20 -13 0 -34 -9 -48
-20 -19 -15 -41 -20 -88 -20 -60 0 -62 1 -52 20 9 17 8 20 -12 20 -13 0 -34
-9 -48 -20 -19 -15 -41 -20 -88 -20 -60 0 -62 1 -52 20 9 17 8 20 -12 20 -13
0 -34 -9 -48 -20 -19 -15 -41 -20 -88 -20 -60 0 -62 1 -52 20 9 17 8 20 -12
20 -13 0 -34 -9 -48 -20 -19 -15 -41 -20 -88 -20 -60 0 -62 1 -52 20 9 17 8
20 -11 20 -11 0 -33 -9 -48 -19 -18 -13 -48 -20 -92 -23 l-66 -3 15 23 c14 21
13 22 -14 22 -23 0 -85 -57 -382 -352z m693 -108 l-90 -91 -3 62 c-3 56 0 65
24 90 25 26 34 29 93 29 l66 0 -90 -90z m100 -100 l-190 -190 -3 62 -3 62 128
128 128 128 65 0 65 0 -190 -190z m100 -100 l-290 -290 -3 62 -3 62 228 228
228 228 65 0 65 0 -290 -290z m100 -100 l-390 -390 -3 62 -3 62 328 328 328
328 65 0 65 0 -390 -390z m100 -100 l-490 -490 -3 62 -3 62 428 428 428 428
65 0 65 0 -490 -490z m100 -100 l-590 -590 -3 62 -3 62 528 528 528 528 65 0
65 0 -590 -590z m100 -100 l-690 -690 -3 62 -3 62 628 628 628 628 65 0 65 0
-690 -690z m720 519 c-166 -166 -172 -171 -272 -219 -57 -27 -118 -59 -135
-71 -18 -12 75 87 207 220 l240 241 65 0 65 0 -170 -171z m225 26 l-145 -145
-78 -13 -78 -14 158 159 158 158 65 0 65 0 -145 -145z m200 0 l-145 -145 -65
0 -65 0 145 145 145 145 65 0 65 0 -145 -145z m187 -13 l-158 -158 -55 10 -55
10 148 148 148 148 65 0 65 0 -158 -158z m174 -26 l-184 -185 -41 16 c-23 9
-43 18 -46 20 -2 2 70 78 160 168 l165 165 65 0 65 0 -184 -184z m163 -37
l-220 -220 -37 21 c-20 12 -37 25 -37 28 0 4 87 93 192 199 l193 193 65 0 65
0 -221 -221z m154 -46 l-268 -268 -32 33 -33 32 235 235 235 235 65 0 65 0
-267 -267z m142 -58 c-178 -178 -325 -323 -327 -322 -1 2 -13 18 -26 37 l-25
35 287 288 286 287 65 0 65 0 -325 -325z m450 287 c0 -36 -14 -52 -358 -395
l-359 -359 -18 47 -18 47 349 349 c290 290 354 349 376 349 26 0 28 -3 28 -38z
m-336 -573 c-186 -186 -341 -336 -345 -334 -3 3 -9 26 -12 52 l-6 48 347 348
347 347 3 -62 3 -62 -337 -337z m-9 -208 l-346 -346 7 70 6 70 337 338 336
337 3 -62 3 -62 -346 -345z m-1580 19 c-186 -186 -341 -337 -343 -335 -3 2 1
35 8 72 l12 68 257 257 256 258 55 9 c30 5 64 9 75 10 13 1 -100 -119 -320
-339z m435 235 c-78 -79 -111 -105 -130 -105 -14 0 -50 -6 -79 -14 l-53 -14
118 119 119 119 65 0 65 0 -105 -105z m239 73 c24 -9 21 -13 -78 -112 l-102
-102 -49 15 -49 16 101 102 c109 109 105 108 177 81z m-599 -31 c0 -1 -79 -81
-176 -177 -162 -160 -174 -170 -146 -121 64 115 145 198 259 267 55 33 63 37
63 31z m721 -19 l39 -22 -62 -63 c-62 -63 -63 -63 -120 -63 -55 0 -58 -1 -64
-27 -15 -69 -14 -68 -37 -44 l-22 21 110 110 c60 61 111 110 113 110 3 0 22
-10 43 -22z m522 -740 c-586 -586 -609 -608 -656 -618 -112 -24 -112 -20 6 98
70 71 121 113 145 121 150 53 304 205 373 369 16 37 95 122 377 405 l357 357
3 -62 3 -62 -608 -608z m-1694 618 c-32 -48 -109 -198 -109 -212 0 -5 -157
-167 -350 -359 l-350 -350 0 65 0 65 417 417 c230 230 419 418 420 418 1 0
-11 -20 -28 -44z m1391 -116 c0 -3 -52 -57 -116 -120 -64 -63 -114 -106 -111
-95 3 11 11 47 17 80 11 56 17 66 88 137 l77 78 22 -38 c13 -20 23 -39 23 -42z
m518 -487 c-332 -332 -397 -393 -421 -393 -21 0 -43 -15 -86 -57 -54 -54 -140
-113 -186 -129 -11 -4 228 242 530 545 l550 551 3 -62 3 -62 -393 -393z
m-1178 424 c0 -1 -59 -61 -130 -132 -128 -128 -130 -129 -115 -85 35 99 95
169 177 205 29 13 68 20 68 12z m694 -28 c13 -66 10 -70 -155 -234 -89 -88
-159 -151 -156 -140 3 11 11 47 17 80 11 59 14 62 143 193 73 72 135 132 138
132 4 0 9 -14 13 -31z m-567 -35 c2 -5 -89 -101 -202 -214 l-205 -205 0 65 0
65 172 172 172 172 30 -23 c16 -12 31 -27 33 -32z m1098 -513 c-251 -251 -339
-334 -321 -301 14 25 26 48 26 53 0 4 -17 7 -37 7 -38 0 -37 1 317 355 l355
355 3 -62 3 -62 -346 -345z m-1055 389 l0 -45 -199 -199 -199 -199 -22 43 -22
43 213 213 c143 143 216 209 221 201 4 -7 8 -32 8 -57z m-675 -56 c-31 -93
-35 -99 -119 -182 l-86 -87 0 65 0 65 117 117 c65 65 118 118 119 118 1 0 -13
-43 -31 -96z m-385 10 l-11 -69 -317 -318 -317 -317 -3 62 -3 62 328 328 c180
180 329 326 330 324 2 -2 -1 -34 -7 -72z m1591 -11 l-12 -68 -167 -167 c-91
-92 -169 -163 -172 -157 -4 5 -3 36 2 67 l9 57 171 172 c95 95 174 170 176
168 2 -2 -1 -35 -7 -72z m191 -866 l-680 -680 -36 29 -36 29 713 713 712 712
3 -62 3 -62 -679 -679z m-753 722 c-27 -98 -30 -103 -122 -196 -76 -78 -84
-83 -123 -83 -88 0 -87 2 92 181 93 93 170 169 171 169 1 0 -7 -32 -18 -71z
m-1356 -431 l-318 -318 -3 62 -3 62 318 318 318 318 3 -62 3 -62 -318 -318z
m615 215 l-63 -63 -12 32 c-21 58 -16 70 60 146 l72 73 3 -62 3 -62 -63 -64z
m1550 -650 l-623 -623 -35 29 -35 30 655 655 655 656 3 -62 3 -62 -623 -623z
m-1823 621 l6 -39 -335 -335 -336 -335 0 65 0 65 322 322 c224 224 325 319
330 309 4 -7 10 -30 13 -52z m1883 -761 c-310 -310 -567 -563 -573 -563 -5 1
-23 12 -40 25 l-30 25 600 600 600 600 3 -62 3 -62 -563 -563z m-1835 625 l17
-42 -327 -328 -327 -328 -33 32 -33 32 337 338 c186 186 340 338 343 338 3 0
13 -19 23 -42z m-1082 -142 l-51 -51 -32 33 -33 32 80 80 80 81 3 -63 3 -62
-50 -50z m1950 -49 l-106 -108 -50 6 c-27 3 -52 8 -54 11 -3 3 53 63 123 133
l129 129 32 -32 33 -31 -107 -108z m2069 113 c0 -3 -47 -52 -105 -110 l-105
-105 0 45 c0 42 4 49 82 127 80 80 81 81 104 65 13 -9 24 -19 24 -22z m-2245
-90 l-101 -101 -47 18 -47 17 72 73 c70 71 74 73 123 74 27 0 59 4 70 9 11 5
22 9 25 9 3 1 -40 -44 -95 -99z m-622 42 l25 -39 -313 -313 c-220 -220 -317
-310 -326 -305 -8 4 -24 17 -37 29 l-23 20 323 323 c178 178 323 323 324 323
1 0 13 -17 27 -38z m985 -79 l-103 -103 -65 0 -65 0 103 103 102 102 65 1 66
0 -103 -103z m833 -567 l-510 -509 -36 28 -37 28 543 543 544 544 3 -62 3 -62
-510 -510z m-1726 534 l29 -31 -312 -312 -312 -312 -32 33 -33 32 310 310
c170 171 312 310 316 310 3 0 18 -14 34 -30z m-174 -434 l-321 -321 -32 33
-33 32 314 314 314 314 39 -26 39 -26 -320 -320z m1254 54 l-310 -309 -58 6
-59 6 239 239 c211 211 244 241 293 259 61 23 176 84 185 99 3 6 9 10 13 10 4
0 -133 -139 -303 -310z m702 -298 l-455 -455 -36 29 -36 29 488 488 487 487 3
-62 3 -62 -454 -454z m-1539 520 l41 -18 -340 -340 -339 -339 -32 33 -33 32
325 325 c179 179 328 325 331 325 4 0 25 -8 47 -18z m188 -65 c2 -2 -161 -167
-361 -367 l-365 -365 -32 33 -33 32 349 349 348 348 46 -13 c25 -8 47 -15 48
-17z m329 -278 c-256 -256 -303 -298 -547 -490 -148 -115 -268 -206 -268 -201
0 4 211 219 470 477 l470 470 72 11 c40 6 75 12 78 13 3 0 -121 -125 -275
-280z m-148 257 c1 -1 -180 -184 -402 -406 l-405 -405 -32 33 -33 32 379 379
379 379 56 -5 c31 -3 57 -6 58 -7z m-254 -458 l-453 -453 -32 33 -33 32 420
420 420 420 65 0 65 0 -452 -452z m1965 -235 l-543 -542 -35 29 -35 29 575
576 575 575 3 -62 3 -62 -543 -543z m-500 149 c-406 -403 -413 -409 -435 -393
-22 16 -17 21 410 449 l432 432 3 -39 3 -40 -413 -409z m-3183 428 l29 -31
-82 -82 -82 -82 0 65 c0 63 1 65 47 112 26 26 50 48 53 48 4 0 19 -14 35 -30z
m100 -100 l29 -31 -132 -132 -132 -132 0 65 0 65 97 97 c54 54 100 98 103 98
4 0 19 -14 35 -30z m3643 -617 c-266 -266 -487 -483 -493 -483 -5 1 -23 12
-40 25 l-30 25 520 520 520 520 3 -62 3 -62 -483 -483z m-3543 517 l29 -31
-182 -182 -182 -182 0 65 0 65 147 147 c81 82 150 148 154 148 3 0 18 -14 34
-30z m100 -100 l29 -31 -232 -232 -232 -232 0 65 0 65 197 197 c109 109 200
198 204 198 3 0 18 -14 34 -30z m3498 -562 c-235 -235 -431 -428 -435 -428 -3
0 -21 12 -38 27 l-32 26 464 464 463 463 3 -62 3 -62 -428 -428z m-3645 155
l-283 -283 -3 62 -3 62 253 253 252 253 33 -32 33 -32 -282 -283z m50 -150
l-333 -333 -3 62 -3 62 303 303 302 303 33 -32 33 -32 -332 -333z m3649 -151
l-375 -375 -37 28 -36 28 408 409 408 408 3 -62 3 -62 -374 -374z m-3599 1
l-383 -383 -3 62 -3 62 353 353 352 353 33 -32 33 -32 -382 -383z m50 -150
l-433 -433 -3 62 -3 62 403 403 402 403 33 -32 34 -32 -433 -433z m1786 441
l29 -26 -704 -704 -704 -704 -65 0 -65 0 730 730 c401 402 734 730 740 730 5
0 23 -12 39 -26z m1819 -436 l-318 -318 -38 27 -38 27 353 353 353 353 3 -62
3 -62 -318 -318z m-3555 -155 l-483 -483 -3 62 -3 62 453 453 452 453 33 -32
34 -32 -483 -483z m1872 478 c0 -3 -296 -302 -657 -663 l-658 -658 -65 0 -65
0 689 689 689 689 34 -25 c18 -14 33 -28 33 -32z m-1290 -90 c0 -10 -982 -985
-1027 -1020 l-43 -33 0 54 0 53 502 502 501 501 34 -25 c18 -14 33 -28 33 -32z
m1373 31 l35 -29 -616 -616 -617 -617 -65 0 -65 0 645 645 c355 355 645 645
646 645 1 0 17 -13 37 -28z m1655 -409 l-263 -263 -35 29 -35 30 295 296 295
295 3 -62 3 -62 -263 -263z m-2853 -253 l-600 -600 -65 0 -65 0 365 366 c351
352 376 374 660 599 162 129 297 234 300 234 3 1 -265 -269 -595 -599z m1311
573 l35 -26 -573 -574 -573 -573 -65 0 -65 0 600 600 c330 330 601 600 603
600 2 0 19 -12 38 -27z m-1411 -13 l29 -30 -59 -61 c-33 -33 -152 -133 -265
-222 -432 -340 -427 -341 -70 17 179 179 327 326 331 326 3 0 18 -14 34 -30z
m1523 -76 l34 -27 -528 -528 -529 -529 -65 0 -65 0 555 555 c305 305 557 555
559 555 2 0 20 -12 39 -26z m1485 -375 l-208 -208 -35 30 -35 29 240 240 240
240 3 -62 3 -62 -208 -207z m-1369 285 l29 -26 -484 -484 -484 -484 -65 0 -65
0 510 510 c280 281 514 510 520 510 5 0 23 -12 39 -26z m136 -113 c0 -3 -197
-203 -437 -443 l-438 -438 -65 0 -65 0 469 469 469 469 34 -25 c18 -14 33 -28
33 -32z m83 -59 l35 -29 -396 -396 -397 -397 -65 0 -65 0 425 425 c234 234
425 425 426 425 1 0 17 -13 37 -28z m1209 -255 c-160 -160 -151 -155 -207
-112 -19 15 -12 23 165 200 l185 185 3 -62 3 -62 -149 -149z m-1096 166 l35
-26 -353 -354 -353 -353 -65 0 -65 0 380 380 c209 209 381 380 383 380 2 0 19
-12 38 -27z m112 -89 l34 -27 -308 -308 -309 -309 -65 0 -65 0 335 335 c184
184 337 335 339 335 2 0 20 -12 39 -26z m1038 -223 l-95 -94 -36 28 -37 28
128 129 129 128 3 -62 3 -62 -95 -95z m-921 134 l30 -25 -265 -265 -265 -265
-65 0 -65 0 290 290 c159 160 294 290 300 290 5 -1 24 -12 40 -25z m135 -114
c0 -3 -98 -104 -217 -223 l-218 -218 -65 0 -65 0 249 249 249 249 34 -25 c18
-14 33 -28 33 -32z m-2801 -207 l-235 -235 -63 3 -64 3 294 232 c162 128 296
232 299 232 3 1 -101 -105 -231 -235z m2884 148 l36 -29 -177 -176 -177 -177
-65 0 -65 0 205 205 c113 113 205 205 206 205 1 0 17 -13 37 -28z m113 -89
l35 -26 -133 -134 -133 -133 -65 0 -65 0 160 160 c88 88 161 160 163 160 2 0
19 -12 38 -27z m114 -90 l32 -26 -89 -89 -88 -88 -65 0 -65 0 115 115 c63 63
118 115 122 115 3 0 21 -12 38 -27z m115 -88 l30 -24 -45 -46 c-43 -44 -45
-45 -109 -45 l-65 0 69 70 c38 39 74 70 80 70 5 -1 23 -12 40 -25z"/>
</g>
</svg>
